<svg xmlns="https://www.w3.org/2000/svg" style="display: none;">

<symbol id="linkedin-logo" viewBox="0 0 430.117 430.118">
  <title>linkedin-logo</title>
  <path id="LinkedIn__x28_alt_x29_" d="M398.355,0H31.782C14.229,0,0.002,13.793,0.002,30.817v368.471 c0,17.025,14.232,30.83,31.78,30.83h366.573c17.549,0,31.76-13.814,31.76-30.83V30.817C430.115,13.798,415.904,0,398.355,0z M130.4,360.038H65.413V165.845H130.4V360.038z M97.913,139.315h-0.437c-21.793,0-35.92-14.904-35.92-33.563 c0-19.035,14.542-33.535,36.767-33.535c22.227,0,35.899,14.496,36.331,33.535C134.654,124.415,120.555,139.315,97.913,139.315z M364.659,360.038h-64.966V256.138c0-26.107-9.413-43.921-32.907-43.921c-17.973,0-28.642,12.018-33.327,23.621 c-1.736,4.144-2.166,9.94-2.166,15.728v108.468h-64.954c0,0,0.85-175.979,0-194.192h64.964v27.531 c8.624-13.229,24.035-32.1,58.534-32.1c42.76,0,74.822,27.739,74.822,87.414V360.038z M230.883,193.99 c0.111-0.182,0.266-0.401,0.42-0.614v0.614H230.883z"/></symbol>
<symbol id="xing" viewBox="0 0 300.5 300.5">
  <title>xing</title>
    <path id="XMLID_447_" d="M276.384,2.934c-2.272-3.553-6.834-2.92-23.745-2.842c-10.146,0.048-19.983-0.213-24.952,0.062 c-4.463,0.247-7.68,2.526-10.248,5.677l-8.313,14.73L173.013,84.56c-18.332,32.126-36.759,64.242-53.388,94.613l50.088,90.901 l13.986,25.383c1.449,2.508,2.993,2.887,4.564,3.371c7.254,2.233,17.856,1.584,29.318,1.584c9.734,0,22.387,0.176,24.473-4.367 c1.043-2.273,0.13-5.324-1.32-8.388c0,0-8.016-14.457-18.52-33.549c4.877,8.817,9.789,17.676,14.731,26.604L181.3,178.706 c1.254,2.387,2.522,4.766,3.785,7.148c-1.35-2.535-2.619-4.931-3.785-7.148l42.133-74.92 c14.614-25.715,29.268-51.489,43.624-77.573l0.054-0.097l0.014-0.023c-0.004,0.006-0.007,0.012-0.01,0.017l9.774-17.381 C278.229,5.963,277.409,4.541,276.384,2.934z"/>
    <path id="XMLID_449_" d="M104.779,74.358c-3.67-6.393-6.443-14.728-14.839-14.842c-14.84,0-29.686,0-44.525,0 c-2.429,0.348-4.608,0.959-5.102,3.246c-0.794,4.819,3.31,11.438,5.572,15.31c5.262,9.038,23.787,38.482,23.645,41.737 c-0.092,2.182-29.117,51.734-41.734,74.205c-1.877,3.336-5.91,9.348-4.642,12.058c1.327,2.835,3.962,3.892,5.564,3.712 c14.996,0,29.995,0,44.993,0c9.191-1.119,9.599-5.981,18.081-21.336c12.985-23.506,26.829-47.39,38.961-69.103 C123.254,105.411,113.284,89.174,104.779,74.358z"/></symbol>
<symbol id="github-logo" viewBox="0 0 438.549 438.549">
  <title>github-logo</title>
    <path d="M409.132,114.573c-19.608-33.596-46.205-60.194-79.798-79.8C295.736,15.166,259.057,5.365,219.271,5.365 c-39.781,0-76.472,9.804-110.063,29.408c-33.596,19.605-60.192,46.204-79.8,79.8C9.803,148.168,0,184.854,0,224.63 c0,47.78,13.94,90.745,41.827,128.906c27.884,38.164,63.906,64.572,108.063,79.227c5.14,0.954,8.945,0.283,11.419-1.996 c2.475-2.282,3.711-5.14,3.711-8.562c0-0.571-0.049-5.708-0.144-15.417c-0.098-9.709-0.144-18.179-0.144-25.406l-6.567,1.136 c-4.187,0.767-9.469,1.092-15.846,1c-6.374-0.089-12.991-0.757-19.842-1.999c-6.854-1.231-13.229-4.086-19.13-8.559 c-5.898-4.473-10.085-10.328-12.56-17.556l-2.855-6.57c-1.903-4.374-4.899-9.233-8.992-14.559 c-4.093-5.331-8.232-8.945-12.419-10.848l-1.999-1.431c-1.332-0.951-2.568-2.098-3.711-3.429c-1.142-1.331-1.997-2.663-2.568-3.997 c-0.572-1.335-0.098-2.43,1.427-3.289c1.525-0.859,4.281-1.276,8.28-1.276l5.708,0.853c3.807,0.763,8.516,3.042,14.133,6.851 c5.614,3.806,10.229,8.754,13.846,14.842c4.38,7.806,9.657,13.754,15.846,17.847c6.184,4.093,12.419,6.136,18.699,6.136 c6.28,0,11.704-0.476,16.274-1.423c4.565-0.952,8.848-2.383,12.847-4.285c1.713-12.758,6.377-22.559,13.988-29.41 c-10.848-1.14-20.601-2.857-29.264-5.14c-8.658-2.286-17.605-5.996-26.835-11.14c-9.235-5.137-16.896-11.516-22.985-19.126 c-6.09-7.614-11.088-17.61-14.987-29.979c-3.901-12.374-5.852-26.648-5.852-42.826c0-23.035,7.52-42.637,22.557-58.817 c-7.044-17.318-6.379-36.732,1.997-58.24c5.52-1.715,13.706-0.428,24.554,3.853c10.85,4.283,18.794,7.952,23.84,10.994 c5.046,3.041,9.089,5.618,12.135,7.708c17.705-4.947,35.976-7.421,54.818-7.421s37.117,2.474,54.823,7.421l10.849-6.849 c7.419-4.57,16.18-8.758,26.262-12.565c10.088-3.805,17.802-4.853,23.134-3.138c8.562,21.509,9.325,40.922,2.279,58.24 c15.036,16.18,22.559,35.787,22.559,58.817c0,16.178-1.958,30.497-5.853,42.966c-3.9,12.471-8.941,22.457-15.125,29.979 c-6.191,7.521-13.901,13.85-23.131,18.986c-9.232,5.14-18.182,8.85-26.84,11.136c-8.662,2.286-18.415,4.004-29.263,5.146 c9.894,8.562,14.842,22.077,14.842,40.539v60.237c0,3.422,1.19,6.279,3.572,8.562c2.379,2.279,6.136,2.95,11.276,1.995 c44.163-14.653,80.185-41.062,108.068-79.226c27.88-38.161,41.825-81.126,41.825-128.906 C438.536,184.851,428.728,148.168,409.132,114.573z"/></symbol>
<symbol id="linkedin" viewBox="0 0 112.196 112.196">
  <title>linkedin</title><circle style="fill:#007AB9;" cx="56.098" cy="56.097" r="56.098"/><g> 
    <path style="fill:#F1F2F2;" d="M89.616,60.611v23.128H76.207V62.161c0-5.418-1.936-9.118-6.791-9.118 c-3.705,0-5.906,2.491-6.878,4.903c-0.353,0.862-0.444,2.059-0.444,3.268v22.524H48.684c0,0,0.18-36.546,0-40.329h13.411v5.715 c-0.027,0.045-0.065,0.089-0.089,0.132h0.089v-0.132c1.782-2.742,4.96-6.662,12.085-6.662 C83.002,42.462,89.616,48.226,89.616,60.611L89.616,60.611z M34.656,23.969c-4.587,0-7.588,3.011-7.588,6.967 c0,3.872,2.914,6.97,7.412,6.97h0.087c4.677,0,7.585-3.098,7.585-6.97C42.063,26.98,39.244,23.969,34.656,23.969L34.656,23.969z M27.865,83.739H41.27V43.409H27.865V83.739z"/> </g></symbol>
<symbol id="twitter-letter-logo" viewBox="0 0 90 90">
  <title>twitter-letter-logo</title>
    <path id="Twitter" d="M67.261,67.496H45.054c-3.087,0-5.712-1.08-7.869-3.25c-2.167-2.172-3.238-4.797-3.238-7.898v-7.904H65.59 c2.854,0,5.312-1.025,7.354-3.062c2.041-2.054,3.066-4.509,3.066-7.366c0-2.867-1.025-5.319-3.072-7.366 c-2.049-2.042-4.515-3.066-7.381-3.066H33.946V11.254c0-3.09-1.102-5.735-3.29-7.939C28.478,1.107,25.842,0,22.782,0 c-3.146,0-5.825,1.091-8.004,3.25C12.591,5.416,11.5,8.084,11.5,11.264v45.089c0,9.274,3.278,17.197,9.837,23.773 C27.901,86.715,35.814,90,45.066,90h22.203c3.082,0,5.729-1.107,7.93-3.314c2.203-2.197,3.302-4.849,3.302-7.936 c0-3.088-1.099-5.734-3.302-7.941C72.997,68.607,70.347,67.496,67.261,67.496z"/></symbol><symbol id="curriculum-vitae" viewBox="0 0 512 512">
  <title>curriculum-vitae</title><g> <g> <path d="M195.01,163.328c10.967-11.252,17.001-25.854,17.001-41.328c0-33.358-28.006-60-61-60c-33.02,0-61,26.676-61,60 c0,15.475,6.033,30.076,17.001,41.328C79.434,178.566,60.011,207.704,60.011,242v15c0,8.284,6.716,15,15,15h152 c8.284,0,15-6.716,15-15v-15C242.011,208.299,223.132,178.867,195.01,163.328z M151.011,92c16.804,0,31,13.738,31,30 c0,16.262-14.196,30-31,30c-16.804,0-31-13.738-31-30C120.011,105.738,134.207,92,151.011,92z M90.011,242 c0-33.084,27.364-60,61-60c33.636,0,61,26.916,61,60H90.011z"/> </g> </g><g> <g> <path d="M498.831,171.835c-17.545-17.546-46.095-17.546-63.64,0l-13.18,13.18v-78.017c0-3.902-1.489-7.64-4.392-10.605 c-0.001-0.001-0.001-0.002-0.002-0.002l-89.883-91.88C324.807,1.536,320.86,0,317.011,0h-272c-24.872,0-45,21.096-45,46v421 c0,24.813,20.187,45,45,45h332c24.813,0,45-20.187,45-45V312.294l34.393-34.393l42.427-42.426 C516.375,217.93,516.375,189.381,498.831,171.835z M332.011,51.784L371.353,92h-39.342V51.784z M392.011,467 c0,8.271-6.729,15-15,15h-332c-8.271,0-15-6.729-15-15V46c0-8.523,7.009-16,15-16h257v77c0,8.284,6.716,15,15,15h75v93.016 L265.485,341.541c-1.044,1.043-2.081,2.441-2.81,3.898L224.395,422h-58.384c-8.284,0-15,6.716-15,15s6.716,15,15,15h61 c1.149,0,10.385-0.095,13.363-1.583l84.853-42.426c1.472-0.742,2.826-1.741,3.898-2.81l62.886-62.886V467z M302.143,385.991 l-34.937,17.468l17.469-34.937C292.906,371.241,299.425,377.759,302.143,385.991z M325.875,366.004 c-5.073-8.805-12.409-16.141-21.213-21.214l98.71-98.708l21.213,21.213L325.875,366.004z M477.617,214.262l-31.82,31.819 l-21.213-21.213l31.82-31.82c5.849-5.848,15.365-5.848,21.213,0C483.466,198.897,483.466,208.413,477.617,214.262z"/> </g> </g><g> <g> <path d="M347.011,152h-60c-8.284,0-15,6.716-15,15s6.716,15,15,15h60c8.284,0,15-6.716,15-15S355.295,152,347.011,152z"/> </g> </g><g> <g> <path d="M347.011,212h-60c-8.284,0-15,6.716-15,15s6.716,15,15,15h60c8.284,0,15-6.716,15-15S355.295,212,347.011,212z"/> </g> </g><g> <g> <path d="M197.011,302h-122c-8.284,0-15,6.716-15,15s6.716,15,15,15h122c8.284,0,15-6.716,15-15S205.295,302,197.011,302z"/> </g> </g><g> <g> <path d="M197.011,362h-122c-8.284,0-15,6.716-15,15s6.716,15,15,15h122c8.284,0,15-6.716,15-15S205.295,362,197.011,362z"/> </g> </g></symbol></svg>