  <svg version="1.1" id="Layer_1" xmlns="http://www.w3.org/2000/svg" xmlns:xlink="http://www.w3.org/1999/xlink" x="0px" y="0px"
  viewBox="0 0 877 625" style="enable-background:new 0 0 877 625;" xml:space="preserve">
  <style type="text/css">
  .st0{fill:#FFF;stroke:#FFFFFF;stroke-width:3;stroke-miterlimit:10;}
  </style>
  <g>
  <path class="st0" d="M170.1,100.8c3,5.5-2.5,12.8-5.5,17.2c-4.5,6.8-9.8,13-15.5,19c-4.2,4.2-8.8,9.5-14.2,12.8
   c-5,3-12.2,2.2-6.2-4c1.8-1,8.8-18.5,12.2-18.2c-0.5,0.5-2.5,4.8-3.8,7c6.8-9.2,25-36.5,10.8-43c-5.8-2.5-14.2,0-20,2
   c-6.5,2.2-12.8,5.8-18.2,10c7.8-5.8,16.8-9.8,26.5-11.5c4.2-0.8,10-1.8,13.5,1.2c3.8,3.8,1.5,7.8,1,11.5c0-6.2,2-12.2-7.2-13
   c-7.8-0.2-15.8,2.5-22.5,5.8c-11.8,5.8-22.5,15.5-28.5,27.2c-13.2,26.2,6.5,54.2,16.8,77.8c-5-9.5-10.8-18.8-15.5-28.2
   c3.5,7.8,4.8,15,9,22.5c5.8,9.2,11.8,17.8,15,28.2c6.8,22.5-0.2,40.8-17.5,55.8l5-3.5c0.2,7.5-22.5,17-27.8,19
   c-15,6-34.8,7.2-49.8-0.2c-21.5-11-16.5-38.8-6-55.8c2.5-4,21-28.5,26.5-18.8c2.2,4-5.8,14.8-7.2,18.8c-2,4.2-3.2,8.8-4.2,13.2
   c-1.8,8-3.2,17.5,0.2,25.2c4,9.5,14.8,9.5,23.5,7c12-3.8,22.8-12.5,29.2-23.2c3.2-5.5,5.5-11.8,6-18.2c0-2.5-0.2-4.8-0.8-7.2
   c-0.5-1.2-2-3.5-1.5-5.2c0,1,1,2.8,1.5,4c-0.5-1.8-1-3.2-1.2-5.2c0,0.2-1-1.8-1.2-1.8c-0.8-1.8-1.5-3.8-2-5.5L85.8,212
   c-5-13-11-25.8-16.5-38.8c-4-9.5-6.8-20-7.2-30.2c-0.2-2.2-1.5-17.5,2.5-17.5c-0.2,0-1,4-0.8,4c1-4.5,2.8-9.2,5.2-14l-1.8,2.5
   c1.2-8.8,11.8-18,17.8-23.5c8.8-8,19.8-14,31.2-17c12-3,22.8-1,34,3.8c4.5,1.8,8.8,3.8,12.2,6.8C166.8,91.5,168.1,96,170.1,100.8z
    M27.6,236.8c-11.8,16-17.8,37.5-4.8,53.8C13.1,278.3,17.3,251.5,27.6,236.8z M87.3,148.5c0-1,0.2-2.2,0-3.5V148.5z"/>
  <path class="st0" d="M238.8,142.8c0.2,3.5-4,6.2-7,7c-3.2,1-7-1-10-0.5c-1.8,0.5-1.2,1.2-2.8,1.8c-2.2,0.8-5,0.5-7.2,0.5
   c-3.2,0-10.2-1.8-13,0c-0.5,0.2-1,0.8-1.5,1.5l0.8-1.5c-1.5,0.2-4,7-5.8,11.5l2.8-5.5l-3.5,9.5c-2.5,5.2-4.8,10.8-7,16
   c-4.5,10.5-8.5,20.8-12.5,31.5c-6.8,19.5-13.5,40-18,60.2c-0.8,3.5-5,18-0.2,20c0.8,0.5,6-2.5,5.8-2.2c1.2-1.2,2.8-2.5,4-4
   c-1,0.8-3.8,3-3.8,2.5c-0.2-1.5,6-6.5,7-7.8c2.5-2.5,4.8-5.2,7-7.8l14.5-17.8c9-11.2,17.5-22.8,26.5-34c2-2.5,6.5-11.2,9.8-12
   c4-0.8,4.8,3.2,3.5,6.5c-2.2,6.8-9,12.2-12.5,18.2c-6.2,10.5-13.8,20.2-21,30.2c-8,10.8-16,21.5-24.8,31.8c-4,5-9.2,12-15.5,15
   c-4.8,2.2-11-0.5-15-3.5c-4.5-3-7-7.5-8-12.5c-0.2-1.5-1.8-9.5-0.2-11.2v3.8l0.5-5c-0.5,1-0.5-2.2-0.5-2.8c0-2,0.5-4.2,1-6.2
   c0.5-4,1.5-7.8,2.5-11.8c1.8-7.8,3.8-15.5,5.2-23.5c1.2-8,4-15.5,6.5-23c0.5-1.2,5.5-16.5,6.8-16.5c0.2,0-0.5,3-0.5,3.2
   c1-3.8,2.5-7.5,3.8-11.2c-0.5,1.2-1.2,2.5-1.2,2c0-3,3.2-8.2,4.2-11l3-8.8c2.8-8,5.5-16,9-23.5c-7,0.5-13.8,0-20.2,1.2
   c-9.5,1.8-21.5,0.8-31-0.5c-1.2-0.2-7.2-0.5-5.8-3.2c0.5-0.8,6-2,7-2.2c4.8-1.8,9.8-1.8,14.8-2c9.8-1,19.2-0.5,29-1.8
   c2.5-0.2,6.8,0.5,9-0.5c2.2-0.8,2.2-2.5,3.2-4.8c1.8-4.5,3.8-9,5.8-13.2c2.2-4.8,4.2-9.8,7.2-14c2-2.8,4-3.5,5.5-6.5
   c3-6.8,6.5-13.5,11.2-19.2c5-6.5,13.8-7.5,21.5-6c3.8,0.8,9,3,7.2,8c-0.8,2-3.2,3.2-4.8,4.8c0,0.2,2.2-2.2,2.2-1.2
   c-0.2,1.8-9.5,14.5-10.2,14.2c-0.2,0,3.5-6.2,3.8-6.8c-9.5,14-17.5,29.2-25,44.5c0.8,0,1.5-1,2.5-2.8c-0.8,1.5-1.2,2.5-1.2,2.8
   c9.8-0.5,19.8-0.5,29.8-1c2,0,5.8-2.8,6,0.8V142.8z M149.3,296.5c0.2,0.2,0.5,0.5,0.8,0.5L149.3,296.5z M223.8,94.5
   c-20,28.2-32.5,61.8-46.5,93c-8.2,18.2-15.2,37.2-20.8,56.5c-2.5,8.8-4.5,17.5-6.2,26.5l1.2-4.8c2.8-11.8,6.8-23.5,11-34.8
   c9-24.8,17.5-50.2,28.8-74C201.3,135.8,210.3,113.8,223.8,94.5z M182.3,185.8c-2.2,5-4,10-6,14.8c2-4.5,4-9,5.8-13.8
   C182.1,186.5,182.1,186.3,182.3,185.8z M207.1,134l-2.5,5.5C205.3,138,206.3,136,207.1,134z M213.8,120.8l-6,11.5
   C210.3,126.5,212.6,121,213.8,120.8z"/>
  <path class="st0" d="M308.8,215.5l-7.8,10.2l-13.5,17.5c-3.5,4.5-7.8,8.8-11.2,13.2c-3.8,5-7,10.2-11.2,15
   c-4.5,4.8-9.8,9.8-15.8,13c-4.2,2.2-8.2,2.5-12.8,1.2c-6.5-1.8-12.2-5.8-16.5-10.8c-1.2-1.5-2.5-2.8-2.8-4.8
   c-0.2-1.5-0.5-3.2-0.5-5c-0.2-3,0.8-5.2,1.2-8.2c0.5-3.2,2-6.2,2.5-9.5c0.5-3.5,1.5-6.8,2-10c0.2-3-0.2-6.2,0.5-9.2
   c0.5-2,2-4,2.8-6.2c-0.8,1.5-2,3-2.2,4.2c-0.8,2-1.2,4-2,5.8c-0.8,2-1,3.8-1.8,5.8c-1,2.2-2,4.2-2.2,6.8c-0.2,2.2,0,4.5-0.2,6.8
   c-0.5,2.2-1,4-1,6.2c0,0.8,0.5,2.2,0.5,2.8c0,1-0.5,2.2-0.5,3.5c0,2.2,0.5,4.5,0.8,7c-4-7-3.2-14-2-21.5s2.2-14.8,4-22
   c3.2-14.8,10-29.2,19.5-41c7.8-10.2,18-18,31.5-15.5c5,1,10.5,3.2,13.8,7.5c3.5,4.8,3.2,10.8,1.5,16.2c-3.2,9.8-11.5,17.5-19.2,24
   c-3.2,2.8-6.8,5.5-10.5,7.8c-2.5,1.5-5.2,2.5-8,3.5l-4.2,1.5c-1.8,0.5-2,0.2-2.8,1.8c-1.2,2.5-0.5,5-1,7.5c-0.5,3.2-1.2,6.2-2,9.5
   c-1.2,6-3.2,13.8-1.8,20c2.8,12.8,23.8-7,27.5-10.5c2.5-2.2,4.8-4.8,7-7c1.2-1.5,2.8-2.8,3.8-4.2c0,0,0.5-1.2,0.5-1.8
   c3-4.8,7-9.2,10.8-13.8c4.5-5.2,8.5-10.8,12.8-16.5c2.2-3.2,7.5-12.5,11.5-5.8v0.2c0.2,0.2,0.2,0.2,0.2,0
   C310.8,212.8,310.1,214,308.8,215.5z M244.6,221.5c8-4.2,15.2-10,21-16.8l4.2-5.5c0.8-1.2,2-2,2.5-3.5c0.2-1.2-0.2-2.2,0-3.8l1-5.2
   c0.2-2.5-0.8-9-4.5-8.2c-1.8,0.5-3.5,2.8-4.5,4l-4.5,6c-5.2,7.8-8,16.2-11.8,24.2c0,0,0,0.2-0.2,0.8
   C246.6,216,245.8,218.8,244.6,221.5z"/>
  <path class="st0" d="M436.3,209.8c-2,6.8-8.2,9-12.8,13c-3.5,3.2-8.5,6.8-12.5,9.5c-3.2,2.2-6.8,1.5-9.2,4c-0.2,0-0.2-0.2-0.2-0.2
   c-0.8,0.8-1.5,2-3.2,3c-2.2,1.5-3.2,3-5.2,4.5c-3.5,2.5-6,1.5-8.5,2.8h0.2c-1.8,0.8-13.2,14.5-14.2,16c-4,4.5-8.2,8.5-12,12.8
   c-3.2,3.5-10,11.8-15.5,11.8c-6,0-11.5-11-13-15.8c-2.2-6.8,1-4.5,5.2-5.5c6-1.5,11.2-9,15.2-13.2c5.2-5.8,10-12,15.2-18
   c2-2,4-4,5.5-6.5c0.2-0.8,1.5-5,2.5-5c0,0-0.2,1-0.8,1.8l1.5-2.2c-0.8,0.5,1.2-4.2,1.5-4.5c1.2-2.8,2.8-5.2,4.2-8
   c2.8-5,6-10.5,7.2-16.2c0.8-2.8,2.8-13.2-2.8-12.2c-2,0.2-13.5,9.2-14,9c-0.2-0.2,1.5-1.8,1.2-2c-2,2-4.2,4.2-6.2,6.8
   c0.5-0.5,1-0.8,1.5-1c-2,1.8-22,29.8-23.8,32.2c-4,5.5-7.2,11.5-11,17.5c-2,3-3.8,6.8-6.2,9.5c-1.2,1-2.8,1.5-3.5,2.5
   c-2.8,3.8-5,9.5-7.5,14c-3.2,5.5-6.2,11.5-9.8,17c-3,5.5-4.5,11.2-6.5,17.2c-1.5,4.2-3.2,8-4.5,12c0.2-0.8,0.8-1.5,1.2-2
   c0.8-0.2-1.2,9-1.5,9.5l-2.2,11.5c-1.8,8.2-3,16.8-4.5,25c-0.2,3-0.2,8.8-2.8,11.2c-5.5,5.2-12.5-3.5-14.8-7.8
   c-6.5-12-0.5-31.5,1.5-44.5c1.2-8.5,3-17.2,6.2-25.2c1.2-2.5,2.5-4.5,3.5-7.2c0-0.2,0.5-5.5,1.2-5.8c0,0.2,0.2,0.5,0.2,0.8
   c0-0.5,0.2-1,0.5-1.8c-1.2,2.2,0-3.8,0-4c0.8-2.8,1.8-5.2,2.5-7.8c1.8-4.8,3-9.2,4-14c0.5-2,6.8-23,9.2-22.5c0.5,0-0.5,1.8-0.2,2
   c1-2.2,1.8-4.5,2.5-6.8c-0.2,0.5-0.5,1-1,1.2c0,0,9.2-26,10.2-28.8c2-5,3.2-10,5-15.2c0.2-1,1.5-3.2,1.5-4.5c0-1-1.2-1.5-1.2-2.5
   c-0.5-6.5,3.5-13.2,11.8-11c4.2,1,7.2,4.5,9,8.2c2.2,4.2,1,6,0.2,9.8l0.8-1.2c1,0-1,10.5-2.5,10.2c-0.2,0,0.8-3.8,0.8-4.5
   c-2,7-4.2,13.8-6.5,20.5v-0.2l-1.5,4.2c-0.2,0.8-0.5,1.8-1,2.5c-6,17.5-15.5,47.2-16.5,51c2-4,4.2-8,6.5-11.8c-2.2,3.2-4,5.8-4,5.8
   s25-40.5,27.5-44.2c9-13.5,18-27.5,28.2-40.5c4.5-5.5,12.2-15.8,20.5-15.2c13.5,1,16.7,16.2,16.5,26.2c0.2-1.2,0.5-3.5,1-3.2
   c3.8,2-2,20.5-3,23.5c-2.7,8.2-7,16.5-11.5,24.2c5-2.8,9.5-6,14.2-9.2c4.2-2.8,9.8-3,14-4.8c-0.2,0-0.8-0.2-0.8-0.5
   c-0.8-2,12.2-6,13.8-6.2C434.1,210,435.3,210,436.3,209.8z M277.1,317.3c-0.2,0.2-0.2,0.2-0.2,0.5
   C277.1,317.5,277.1,317.5,277.1,317.3z M305.1,235.5c0.5,2-4.2,12-4.8,13.2c-4,10.2-9,20.5-12.2,31c-3.5,11.5-8,23.5-10.8,35.8
   c2.2-8.8,5.2-17.5,8.5-25.5c4-9.5,7.8-19.5,11-29.5c1.5-4.8,3-9.5,4.8-14.2c1.2-3,3.5-6.8,3.8-10V236
   C305.3,236,305.3,235.8,305.1,235.5z M313.8,251.8c1-2.5,1.8-5.2,2.5-8.2C315.3,246.3,314.6,249.3,313.8,251.8z M317.6,240.8
   c0,0,0.2,0,0.2-0.2L317.6,240.8z M329.3,208.8c0.2-0.2,0.5-0.5,0.5-1L329.3,208.8z M330.8,205.5l-1,2.2L330.8,205.5z M330.8,205.5
   c0.2-1,0.5-1.8,0.8-2L330.8,205.5z M343.1,213.3c0,0.2,0,0.2-0.2,0.5v0.2C343.1,213.5,343.3,213,343.1,213.3z M345.8,209.5l4.8-7
   C348.8,204.8,347.3,207.3,345.8,209.5z M393.6,231.3c-0.8,0.5-2,0.8-2.2,1.5L393.6,231.3z"/>
  <path class="st0" d="M543.6,212.5c1-0.2-5.8,13.8-6.8,15c-3.8,6-7.8,12-11.8,17.8c-7.2,11-14,23.8-23.5,33c-3.5,3.2-6,5-10.8,4.8
   c-5.8-0.2-9.5-2.8-13.2-6.5c-0.8-0.8-7.5-6.5-6.8-8.2l1.5,2.2c-0.8-1.2-1.2-2.5-1.8-4v1c-0.8,0.8-2.8-8.2-2.8-9.2
   c-0.2-3.8,0.5-7.5,1.2-11.2c1.8-6,3.5-12,5-18c1.8-6.2,5-12.2,8-18.2c0.5-1,5.2-10.8,6.2-10.8c0,0.2-1,2.5-0.8,2.8l3.8-8.5
   l-0.8,0.8l7.2-17.5c-9.2,7.5-16.5,17.8-23.8,26.8c-3.5,4.2-6.8,9.5-11,13c-1.5,1.2-2,0.5-3.2,2c-1,1.2-1.8,3-2.5,4.5
   c-5.8,9.5-13,18-19,27.2l-4.5,8c-0.5,1.2-0.5,2-1.5,3.2c-3.2,3.5-9,2.2-11.8-1.2c-2.2-2.5-2.5-6-2.5-9c-1-11,1.5-22.8,3.5-33.5
   c4.2-23.5,10-47,17.8-69.8c6.8-20.2,17-38.5,26.8-57.5c0-0.2,1.2-5.5,2.5-6.2c-0.2,0.2-1.8,4.8-1.8,4.8l3-5.8c0,0-0.2,0-0.5-0.2
   c0-4.5,5.5-11.2,8-15c3.5-5.8,7.2-11.2,11.2-16.8c7-9.8,13.8-20.5,23.2-27.8c5-3.8,11-7.2,17.5-6.8c3.2,0,6.5,1.2,8.8,3.5
   c1,1,5.5,8.8,4,9.8c0,0-1.2-3.8-1.5-3.8c1.5,4,1.8,8.5,1.5,12.5c0.2-0.5,0.2-0.8,0.5-0.8c1.2,0-4.2,23-4.8,25
   c-2.5,8.8-6,17.2-9.8,25.5c-8.5,17.5-18.8,36.2-31.5,51.2c-2.5,2.8-5.8,4.8-8,7c-2.5,2.8-4.2,6.2-6.8,9.2
   c-6.5,7.5-13.5,14.5-20.8,21c-4.2,4-5.8,6.2-7.8,11.8c-1.8,5.2-3.2,10.5-5,15.5c-3.2,10-6.2,20-9,30.2c4.2-6.5,8.8-12.8,13.5-19
   c-3.2,3.8-5.5,6.5-5.5,6.5c-0.5-0.2,31-38.8,34.2-42.2c7.5-8,21.2-25.2,32.2-11.8c6.2,7.8,1.5,17-2.2,24.5
   c-6.5,13.8-14.5,29.8-18.5,43.8c0.2-0.2,1.5-4,2.2-3.5c1.5,1.5-3,13.2-3.5,15.5c-0.2,1.8-2,9.8,0,11c3.2,2.2,9-4.5,11.2-6.5
   c9-8.8,17.2-18.5,25.5-28c3-3.8,6-7.8,9.5-11.2c0.8-0.8,2.5-3.2,3.8-3.2C542.3,211,545.1,212.3,543.6,212.5z M457.1,166
   c-0.2,1.2-1.2,5.2-0.8,5.2c-0.8-0.2,9.2-26.5,10.2-29c2-5.2,5-9.8,6.8-15.2c2-5.8,4.5-10.8,7.2-16c3.2-7,34-65.8,32-67
   c-0.5-0.2-24.5,45.5-26.8,50.5c-5,10.5-11.5,20.5-15.5,31.5c-4.5,13-10.8,25.8-13,39.2L457.1,166z M457.1,166c0,0,0.2-0.2,0.2-0.5
   C457.3,165.8,457.1,165.8,457.1,166z M519.8,43c-9,14.2-16.8,29.8-24.5,44.8c-7,13.8-14.8,28-20.8,41.8c0.8-1.2,1.5-2.5,2-2.8
   c0,0-5.2,14.8-6,16.2l-7.5,19.8c18-19,33.5-40.2,46.2-62.8c-5,8.2-10.2,16.5-15.8,24l-10,14l-4.5,4.5l2-2.2c2.5-3,4.8-6,7-9
   c4.2-6,8.5-12.2,12.5-18.5c8.2-13,15.8-26.2,21.8-40.2c3-7.2,6-14.8,8-22.5c1-3.8,4.2-14.2,0.8-17.2s-8.5,6-10.5,9
   c0.2-0.2,0,0.2-0.2,0.8v-0.2c0,0.2-0.2,0.2-0.2,0.2v0.2C520.1,43,519.8,43,519.8,43z M476.3,145.5c-0.8,0.8-1.2,1.8-1.8,2.2
   C475.1,147,475.6,146.3,476.3,145.5z M520.3,42.5h-0.2v0.2L520.3,42.5z"/>
  <path class="st0" d="M645.8,228.5c-3.2,7.5-7,14.2-11,21c-4.8,7.5-9.5,14.8-15,21.2c-4.5,5.8-10.8,13-18.2,14.2
   c-8.5,1.5-15.2-5.5-18-13c-6-14.8-1.8-30.2,2.8-44.5c0,0,0-2.2,0.2-4c-2.5,3.8-6,8.2-8.2,11.8c-3,4.8-5.2,9.5-8.5,14
   c-1.5,2.2-22,27-24.8,22.8c0,0,3-1.2,2.8-1.8c-3,2-7,2.5-10.5,1.5c0.8,0.5,1.2,0.8,1,0.8c-5.8,0.8-10.2-8.2-11.5-12.2
   c-2-7-1.5-14.8-0.2-21.8c2.8-14.5,8.8-30.2,17.2-42.8c2.2-3,4.5-6.5,7.8-8.8c2-1.8,3.8-2,6-3.5c3.8-3.2,7-6,12.5-6
   c12.2,0,17.2,14,19.8,23.5c6-7.8,16.8-18,26-6.8c5,6,1.8,10.5-1,16c-4.8,8.8-8.5,19.5-10.5,28.5c0.2-0.8,1-4.5,2-4.8
   c2-0.5-16,56,9.8,24.2c7.8-9.8,14.5-20,21.2-30.2c3-4.8,6-9.8,9.2-14.5c1.5-2,6-6.8,6.2-1.2C653.3,218,647.8,223.8,645.8,228.5z
    M582.3,210c0-2-5-15.8-3.8-16.8c0.2-0.2,2.5,7,2.8,7.5c-0.8-3-1.8-12.2-6.2-12.2c-8.2,0-14.5,15.2-17.2,21
   c-5,11.2-9.5,23.2-11.5,35.5c0.8-3.8,15.2-49,19.8-48.8c-3.5,0.8-16.8,39.2-17.5,42.8c-0.5,2-4.5,15-0.8,16.2
   c2.5,0.8,8.5-7,9.8-8.8c4.8-5.8,9.2-11.8,13.5-18l6.5-9.2c1-1.8,2.2-3.5,3.5-5.2C582.3,212,582.3,212,582.3,210z M583.1,208.3v2.5
   C583.8,210,583.8,209.3,583.1,208.3z M589.1,220.3l-1.2,1.8c-0.2,0.8-1,4.2-1,4.2L589.1,220.3z"/>
  <path class="st0" d="M726.6,231.5c-5.5,7-10.5,14.5-16.5,21c-4.5,4.8-12,12.8-19,10.5c-1.5-0.5-10.8-5.5-10.5-6.8l0.8,0.5l-1.5-1.5
   c1.2,2-1.5-0.5-1.8-0.5c-1.2-1.2-2.2-3.2-3-4.8c-1.2-2.8-1.5-5.5-1.5-8.2s0.5-5.5,0.8-8.2c0.5-5.8,0.8-10.8,2.5-16.2
   c0.5-1.2,5.8-15.2,7.5-14.8c0.5,0-0.8,1.8-0.5,2l3.5-7c-0.5,0.5-0.8,1-1.2,1.2c-0.2-0.2,3-6,3.8-7.2c-5,5.8-9,11.8-13.5,17.8
   c-3.2,4.2-7.2,7-9.5,11c-5.2,9-11.8,17.2-16,26.5l-1-2c-4.5,5.5-11.2-1-13.8-5.2c-2.2-4-1.5-7-1-11.5c0.5-4,0.2-8,1.5-12.2
   c1.5-5.2,3.5-10.2,5.5-15.5c1.8-5.2,3.5-10.5,5.5-15.8c1.2-3.2,3.8-7.2,4.5-10.8c0.8-2.8,0-4.5,3.2-6.5c3-1.8,6.2-1.5,9.5-1
   c4,0.8,11.2,5,7,11.2c-1.8,2.2-4.8,4.8-6.8,7.2c-2.2,2.8-2,4-3,7.2c-0.5,2-2.5,3.8-3.5,5.8c-1.5,2.8-2.5,6.2-3.5,9.5
   c-0.5,2-0.2,3.5-0.5,5.5c-0.5,5.2-2.2,10.5-2.8,15.8c0.2-1,2-2.8,2.2-2.5s-2.5,4.5-2.2,4.5l14.8-21.5c-3.2,4.2-5.8,7.2-5.8,7.2
   c-0.8-0.5,29-38.5,32.5-41.8c7.2-6.8,16.5-6.5,20,5.2c4,12.5-9,20.8-15,29.8c-3.2,5-6,11-8.5,16.2c-1.8,3.2-5.5,10.5-6,16
   c0.5-3.8,3.2-8.2,4.2-10.8c2-5.2,4.8-9.5,8.8-13.2c-1.8,3.2-3.8,6.2-5.2,9.2l1.2-1.5c0.5,0-2.2,8.5-2.5,9c-1,3-2,6.2-2.2,9.5
   c-0.2,0.2,0,4.2,0,4.2l0.2,0.2c0-0.2,1.8-0.5,2.2-0.8c3.8-1.2,7.5-4.8,10.5-7.2c6-4.8,11.8-10,17.5-15c4.2-4,9.8-8,13.2-12.2
   c1.5-2.2,5-6.2,6.2-0.2C739.1,219,729.6,227.5,726.6,231.5z"/>
  <path class="st0" d="M779.3,224.5c-4.2,6.2-8.2,12.2-13,18.2c-5,6.8-11.2,17.5-20,19.5c-2,0.2-11.5-2.2-11.2-3.8h0.5
   c-2-1,0,1.2-3-1c-2.2-1.5-3.8-3.8-5.2-6c-2.8-3.8-6.2-7-7.2-11.5c-0.2-1.2-0.8-10.2,1.2-10.2c0.5,0,0,1.2,0.2,1.2l0.8-4.5
   c-0.2,0.5-0.2,0.8-0.8,1c-1-0.2,3.8-18,4.2-19.5c2-5.2,3-11.2,8-14.2c3.8-2.5,8.5-2,13.2,0c2,0.8,7.8,3.2,7.8,5.8
   c0,1.5-1.2,1.8-2,2.5c0.2-0.2,0.8-0.2,1-0.2c0.8,0.5-3,5.8-3.5,5.5c-0.5,0,0.2-1.2,0.5-2c-4.8,7.8-8.8,16.5-11.8,25.2
   c1.2-3.2,7.5-17.2,8.2-17s-16.5,30.2-8,34.5c4,2,10.8-4.2,13.5-6.5c4.8-3.8,11.2-8.5,14.8-12.8c-0.5,0.5-1,0.5-1.8,0.5
   c-1-1.2,11.5-17.8,13.8-19.2c1.8-1.2,5.2-2.2,5.8,1C786.3,215.8,781.8,221.3,779.3,224.5z M736.8,238.8l-0.5,2l0.5-1.5V239
   C737.1,238.5,737.1,238.5,736.8,238.8z M740.1,177c-0.2-0.8-1-8.5,1.8-7.2c0-0.8,3-4.5,1.5-1.2c2.2-3,4.2-6.5,6-10.2l-3,4.5
   c2.2-4.5,5.8-13.8,6-15.5c0-0.2-0.5-2.5,0-3c-5.2-2-1.5-5,0.8-6.8c-0.5,0-0.8,0-1-0.5c-1-1,2-1.8,2.8-2c3.5-1.5,8-0.8,11.2,1
   c2.8,1.8,5.2,5.5,6.2,8.5c1,3.2-1.5,7-3.8,9c-1,1-2.8,1.8-4,2.8c-1.5,1.8-1.2,4-2.5,5.8c-0.8,1.2-2.2,1.8-3,3c-1,0.8-1,1.5-0.2,2.2
   c-1,0.5-1.8,1-2.5,1.8c-2.5,4-4,6.2-7,8.5c2.8-1.8,4.5-3.2,7-6.5c2-2.5,4.2-4.2,7.2-5.5c-2.5,2.8-3,6-6,8c-3,1.8-0.2-1.8-3.5,1.2
   c0,0,1.5-0.2,0.8,0.2c-2.2,2-4.5,5.2-7.5,6.5c-1.5,0.5-2.5,1.5-4.2,0.8c-1.8-1-1-2-1.5-2.8C741.6,179.5,740.1,177.3,740.1,177z
    M742.1,169.8c0.2,0,0.2,0.2,0.2,0.2c0.2-0.2,0.2-0.2,0.2-0.5C742.3,169.8,742.3,169.8,742.1,169.8z M746.1,163.3
   c-0.5,1-1,1.5-1,1.5L746.1,163.3z"/>
  <path class="st0" d="M861.8,215.5l-7.8,10.2l-13.5,17.5c-3.5,4.5-7.8,8.8-11.2,13.2c-3.8,5-7,10.2-11.2,15
   c-4.5,4.8-9.8,9.8-15.8,13c-4.2,2.2-8.2,2.5-12.8,1.2c-6.5-1.8-12.2-5.8-16.5-10.8c-1.2-1.5-2.5-2.8-2.8-4.8
   c-0.2-1.5-0.5-3.2-0.5-5c-0.2-3,0.8-5.2,1.2-8.2c0.5-3.2,2-6.2,2.5-9.5c0.5-3.5,1.5-6.8,2-10c0.2-3-0.2-6.2,0.5-9.2
   c0.5-2,2-4,2.8-6.2c-0.8,1.5-2,3-2.2,4.2c-0.8,2-1.2,4-2,5.8c-0.8,2-1,3.8-1.8,5.8c-1,2.2-2,4.2-2.2,6.8c-0.2,2.2,0,4.5-0.2,6.8
   c-0.5,2.2-1,4-1,6.2c0,0.8,0.5,2.2,0.5,2.8c0,1-0.5,2.2-0.5,3.5c0,2.2,0.5,4.5,0.8,7c-4-7-3.2-14-2-21.5s2.2-14.8,4-22
   c3.2-14.8,10-29.2,19.5-41c7.8-10.2,18-18,31.5-15.5c5,1,10.5,3.2,13.8,7.5c3.5,4.8,3.2,10.8,1.5,16.2c-3.2,9.8-11.5,17.5-19.2,24
   c-3.2,2.8-6.8,5.5-10.5,7.8c-2.5,1.5-5.2,2.5-8,3.5l-4.2,1.5c-1.8,0.5-2,0.2-2.8,1.8c-1.2,2.5-0.5,5-1,7.5c-0.5,3.2-1.2,6.2-2,9.5
   c-1.2,6-3.2,13.8-1.8,20c2.8,12.8,23.8-7,27.5-10.5c2.5-2.2,4.8-4.8,7-7c1.2-1.5,2.8-2.8,3.8-4.2c0,0,0.5-1.2,0.5-1.8
   c3-4.8,7-9.2,10.8-13.8c4.5-5.2,8.5-10.8,12.8-16.5c2.2-3.2,7.5-12.5,11.5-5.8v0.2c0.2,0.2,0.2,0.2,0.2,0
   C863.8,212.8,863.1,214,861.8,215.5z M797.6,221.5c8-4.2,15.2-10,21-16.8l4.2-5.5c0.8-1.2,2-2,2.5-3.5c0.2-1.2-0.2-2.2,0-3.8l1-5.2
   c0.2-2.5-0.8-9-4.5-8.2c-1.8,0.5-3.5,2.8-4.5,4l-4.5,6c-5.2,7.8-8,16.2-11.8,24.2c0,0,0,0.2-0.2,0.8
   C799.6,216,798.8,218.8,797.6,221.5z"/>
  <path class="st0" d="M170.1,400.8c3,5.5-2.5,12.8-5.5,17.2c-4.5,6.8-9.8,13-15.5,19c-4.2,4.2-8.8,9.5-14.2,12.8
   c-5,3-12.2,2.2-6.2-4c1.8-1,8.8-18.5,12.2-18.2c-0.5,0.5-2.5,4.8-3.8,7c6.8-9.2,25-36.5,10.8-43c-5.8-2.5-14.2,0-20,2
   c-6.5,2.2-12.8,5.8-18.2,10c7.8-5.8,16.8-9.8,26.5-11.5c4.2-0.8,10-1.8,13.5,1.2c3.8,3.8,1.5,7.8,1,11.5c0-6.2,2-12.2-7.2-13
   c-7.8-0.2-15.8,2.5-22.5,5.8c-11.8,5.8-22.5,15.5-28.5,27.2c-13.2,26.2,6.5,54.2,16.8,77.8c-5-9.5-10.8-18.8-15.5-28.2
   c3.5,7.8,4.8,15,9,22.5c5.8,9.2,11.8,17.8,15,28.2c6.8,22.5-0.2,40.8-17.5,55.8l5-3.5c0.2,7.5-22.5,17-27.8,19
   c-15,6-34.8,7.2-49.8-0.2c-21.5-11-16.5-38.8-6-55.8c2.5-4,21-28.5,26.5-18.8c2.2,4-5.8,14.8-7.2,18.8c-2,4.2-3.2,8.8-4.2,13.2
   c-1.8,8-3.2,17.5,0.2,25.2c4,9.5,14.8,9.5,23.5,7c12-3.8,22.8-12.5,29.2-23.2c3.2-5.5,5.5-11.8,6-18.2c0-2.5-0.2-4.8-0.8-7.2
   c-0.5-1.2-2-3.5-1.5-5.2c0,1,1,2.8,1.5,4c-0.5-1.8-1-3.2-1.2-5.2c0,0.2-1-1.8-1.2-1.8c-0.8-1.8-1.5-3.8-2-5.5L85.8,512
   c-5-13-11-25.8-16.5-38.8c-4-9.5-6.8-20-7.2-30.2c-0.2-2.2-1.5-17.5,2.5-17.5c-0.2,0-1,4-0.8,4c1-4.5,2.8-9.2,5.2-14l-1.8,2.5
   c1.2-8.8,11.8-18,17.8-23.5c8.8-8,19.8-14,31.2-17c12-3,22.8-1,34,3.8c4.5,1.8,8.8,3.8,12.2,6.8C166.8,391.5,168.1,396,170.1,400.8
   z M27.6,536.8c-11.8,16-17.8,37.5-4.8,53.8C13.1,578.3,17.3,551.5,27.6,536.8z M87.3,448.5c0-1,0.2-2.2,0-3.5V448.5z"/>
  <path class="st0" d="M232.1,515.5l-7.8,10.2l-13.5,17.5c-3.5,4.5-7.8,8.8-11.2,13.2c-3.8,5-7,10.2-11.2,15
   c-4.5,4.8-9.8,9.8-15.8,13c-4.2,2.2-8.2,2.5-12.8,1.2c-6.5-1.8-12.2-5.8-16.5-10.8c-1.2-1.5-2.5-2.8-2.8-4.8
   c-0.2-1.5-0.5-3.2-0.5-5c-0.2-3,0.8-5.2,1.2-8.2c0.5-3.2,2-6.2,2.5-9.5c0.5-3.5,1.5-6.8,2-10c0.2-3-0.2-6.2,0.5-9.2
   c0.5-2,2-4,2.8-6.2c-0.8,1.5-2,3-2.2,4.2c-0.8,2-1.2,4-2,5.8c-0.8,2-1,3.8-1.8,5.8c-1,2.2-2,4.2-2.2,6.8c-0.2,2.2,0,4.5-0.2,6.8
   c-0.5,2.2-1,4-1,6.2c0,0.8,0.5,2.2,0.5,2.8c0,1-0.5,2.2-0.5,3.5c0,2.2,0.5,4.5,0.8,7c-4-7-3.2-14-2-21.5s2.2-14.8,4-22
   c3.2-14.8,10-29.2,19.5-41c7.8-10.2,18-18,31.5-15.5c5,1,10.5,3.2,13.8,7.5c3.5,4.8,3.2,10.8,1.5,16.2c-3.2,9.8-11.5,17.5-19.2,24
   c-3.2,2.8-6.8,5.5-10.5,7.8c-2.5,1.5-5.2,2.5-8,3.5l-4.2,1.5c-1.8,0.5-2,0.2-2.8,1.8c-1.2,2.5-0.5,5-1,7.5c-0.5,3.2-1.2,6.2-2,9.5
   c-1.2,6-3.2,13.8-1.8,20c2.8,12.8,23.8-7,27.5-10.5c2.5-2.2,4.8-4.8,7-7c1.2-1.5,2.8-2.8,3.8-4.2c0,0,0.5-1.2,0.5-1.8
   c3-4.8,7-9.2,10.8-13.8c4.5-5.2,8.5-10.8,12.8-16.5c2.2-3.2,7.5-12.5,11.5-5.8v0.2c0.2,0.2,0.2,0.2,0.2,0
   C234.1,512.8,233.3,514,232.1,515.5z M167.8,521.5c8-4.2,15.2-10,21-16.8l4.2-5.5c0.8-1.2,2-2,2.5-3.5c0.2-1.2-0.2-2.2,0-3.8l1-5.2
   c0.2-2.5-0.8-9-4.5-8.2c-1.8,0.5-3.5,2.8-4.5,4l-4.5,6c-5.2,7.8-8,16.2-11.8,24.2c0,0,0,0.2-0.2,0.8
   C169.8,516,169.1,518.8,167.8,521.5z"/>
  <path class="st0" d="M307.1,531.5c-5.5,7-10.5,14.5-16.5,21c-4.5,4.8-12,12.8-19,10.5c-1.5-0.5-10.8-5.5-10.5-6.8l0.8,0.5l-1.5-1.5
   c1.2,2-1.5-0.5-1.8-0.5c-1.2-1.2-2.2-3.2-3-4.8c-1.2-2.8-1.5-5.5-1.5-8.2s0.5-5.5,0.8-8.2c0.5-5.8,0.8-10.8,2.5-16.2
   c0.5-1.2,5.8-15.2,7.5-14.8c0.5,0-0.8,1.8-0.5,2l3.5-7c-0.5,0.5-0.8,1-1.2,1.2c-0.2-0.2,3-6,3.8-7.2c-5,5.8-9,11.8-13.5,17.8
   c-3.2,4.2-7.2,7-9.5,11c-5.2,9-11.8,17.2-16,26.5l-1-2c-4.5,5.5-11.2-1-13.8-5.2c-2.2-4-1.5-7-1-11.5c0.5-4,0.2-8,1.5-12.2
   c1.5-5.2,3.5-10.2,5.5-15.5c1.8-5.2,3.5-10.5,5.5-15.8c1.2-3.2,3.8-7.2,4.5-10.8c0.8-2.8,0-4.5,3.2-6.5c3-1.8,6.2-1.5,9.5-1
   c4,0.8,11.2,5,7,11.2c-1.8,2.2-4.8,4.8-6.8,7.2c-2.2,2.8-2,4-3,7.2c-0.5,2-2.5,3.8-3.5,5.8c-1.5,2.8-2.5,6.2-3.5,9.5
   c-0.5,2-0.2,3.5-0.5,5.5c-0.5,5.2-2.2,10.5-2.8,15.8c0.2-1,2-2.8,2.2-2.5s-2.5,4.5-2.2,4.5l14.8-21.5c-3.2,4.2-5.8,7.2-5.8,7.2
   c-0.8-0.5,29-38.5,32.5-41.8c7.2-6.8,16.5-6.5,20,5.2c4,12.5-9,20.8-15,29.8c-3.2,5-6,11-8.5,16.2c-1.8,3.2-5.5,10.5-6,16
   c0.5-3.8,3.2-8.2,4.2-10.8c2-5.2,4.8-9.5,8.8-13.2c-1.8,3.2-3.8,6.2-5.2,9.2l1.2-1.5c0.5,0-2.2,8.5-2.5,9c-1,3-2,6.2-2.2,9.5
   c-0.2,0.2,0,4.2,0,4.2l0.2,0.2c0-0.2,1.8-0.5,2.2-0.8c3.8-1.2,7.5-4.8,10.5-7.2c6-4.8,11.8-10,17.5-15c4.2-4,9.8-8,13.2-12.2
   c1.5-2.2,5-6.2,6.2-0.2C319.6,519,310.1,527.5,307.1,531.5z"/>
  <path class="st0" d="M390.6,522c-0.5,0-3.8,1-3.5,0.8c-2.5,1-2,0.8-3.8,3c-2,3-3.8,6.2-5.5,9.2c-1,1-10,14.2-11.8,13.5
   c0,0,2-2.5,1.8-2.8l-7.2,8.5c0.8-0.8,1.2-1,1.2-0.8c-1.5,4.2-9.8,9.2-13.5,12c-4,3-9,5.8-14.2,6.5c-5,0.5-10.5-0.5-15.2-2.8
   c-14.8-7.2-23.5-27.2-15.5-42.5c4.2-8,7.2-17,13.2-25c3.5-4.2,7.2-8.5,12-11.5c2-1.5,4.2-2.8,6.8-3.8c1.8-1,5.5-1.2,6.8-2.2
   c1.5-1,3-7.5,4-9.5s2.2-4,3.5-5.8c3.5-5,7.8-10,13-13c8.5-4.8,17,0,23.2,6.2c0,0,4.2,2.8,4,4.2l-1-1l1,2l0.2,0.2
   c-0.8-2,2.2,1.8,2.2,1.8c1.2,2,2,4.2,2.5,6.5c0.8,3.5,0.5,7.2,0,10.8c-1,9.2-3.8,18.8-6.5,27.8c7.5-1.2,15-3,22.3-4.5
   c1.8-0.5,3.5-1.8,4.8,0c0.2,0.5,0,0.2,0,0.2C422.6,519.5,393.3,521.5,390.6,522z M367.1,522.8c-11-1.5-24.5-6.2-27.2-18.8
   c-1.8,2-5.2,8-9,15.5l1.5-2.2c-0.5,2.5-24.5,46.5-3.8,43.5h0.2C346.3,557.5,359.8,537.3,367.1,522.8z M379.1,466.5
   c-5-7.8-14.2,3.5-18,8.5c-0.2,0-0.2,0.2-0.2,0.2l-0.2,0.5v-0.2c-0.2,0.5-0.5,0.8-0.2,0.8c-1.2,1.8-2.8,3.2-4.2,6
   c0.2-0.2,3-4.8,3.2-4c0.8,1.5-4,9.5-4.8,11c-1.5,4-2.8,8-3.2,12.2s-1,9,2.5,12c2,1.8,5.2,2.2,8,2.5c1.5,0.2,4.8,0.8,6.2,0.2
   c2.5-0.5,1.8,0.2,3-2.2c3.8-6.2,5.2-15.5,7-22.5C379.3,485.3,382.8,473,379.1,466.5z M361.1,475l-0.2,0.2
   C360.8,475.3,361.1,475.3,361.1,475z"/>
  <path class="st0" d="M490.1,531.5c-5.5,7-10.5,14.5-16.5,21c-4.5,4.8-12,12.8-19,10.5c-1.5-0.5-10.8-5.5-10.5-6.8l0.8,0.5l-1.5-1.5
   c1.2,2-1.5-0.5-1.8-0.5c-1.2-1.2-2.2-3.2-3-4.8c-1.2-2.8-1.5-5.5-1.5-8.2s0.5-5.5,0.8-8.2c0.5-5.8,0.8-10.8,2.5-16.2
   c0.5-1.2,5.8-15.2,7.5-14.8c0.5,0-0.8,1.8-0.5,2l3.5-7c-0.5,0.5-0.8,1-1.2,1.2c-0.2-0.2,3-6,3.8-7.2c-5,5.8-9,11.8-13.5,17.8
   c-3.2,4.2-7.2,7-9.5,11c-5.2,9-11.8,17.2-16,26.5l-1-2c-4.5,5.5-11.2-1-13.8-5.2c-2.2-4-1.5-7-1-11.5c0.5-4,0.2-8,1.5-12.2
   c1.5-5.2,3.5-10.2,5.5-15.5c1.8-5.2,3.5-10.5,5.5-15.8c1.2-3.2,3.8-7.2,4.5-10.8c0.8-2.8,0-4.5,3.2-6.5c3-1.8,6.2-1.5,9.5-1
   c4,0.8,11.2,5,7,11.2c-1.8,2.2-4.8,4.8-6.8,7.2c-2.2,2.8-2,4-3,7.2c-0.5,2-2.5,3.8-3.5,5.8c-1.5,2.8-2.5,6.2-3.5,9.5
   c-0.5,2-0.2,3.5-0.5,5.5c-0.5,5.2-2.2,10.5-2.8,15.8c0.2-1,2-2.8,2.2-2.5s-2.5,4.5-2.2,4.5l14.8-21.5c-3.2,4.2-5.8,7.2-5.8,7.2
   c-0.8-0.5,29-38.5,32.5-41.8c7.2-6.8,16.5-6.5,20,5.2c4,12.5-9,20.8-15,29.8c-3.2,5-6,11-8.5,16.2c-1.8,3.2-5.5,10.5-6,16
   c0.5-3.8,3.2-8.2,4.2-10.8c2-5.2,4.8-9.5,8.8-13.2c-1.8,3.2-3.8,6.2-5.2,9.2l1.2-1.5c0.5,0-2.2,8.5-2.5,9c-1,3-2,6.2-2.2,9.5
   c-0.2,0.2,0,4.2,0,4.2l0.2,0.2c0-0.2,1.8-0.5,2.2-0.8c3.8-1.2,7.5-4.8,10.5-7.2c6-4.8,11.8-10,17.5-15c4.2-4,9.8-8,13.2-12.2
   c1.5-2.2,5-6.2,6.2-0.2C502.6,519,493.1,527.5,490.1,531.5z"/>
  <path class="st0" d="M578.1,515.5l-7.8,10.2l-13.5,17.5c-3.5,4.5-7.8,8.8-11.2,13.2c-3.8,5-7,10.2-11.2,15
   c-4.5,4.8-9.8,9.8-15.8,13c-4.2,2.2-8.2,2.5-12.8,1.2c-6.5-1.8-12.2-5.8-16.5-10.8c-1.2-1.5-2.5-2.8-2.8-4.8
   c-0.2-1.5-0.5-3.2-0.5-5c-0.2-3,0.8-5.2,1.2-8.2c0.5-3.2,2-6.2,2.5-9.5c0.5-3.5,1.5-6.8,2-10c0.2-3-0.2-6.2,0.5-9.2
   c0.5-2,2-4,2.8-6.2c-0.8,1.5-2,3-2.2,4.2c-0.8,2-1.2,4-2,5.8c-0.8,2-1,3.8-1.8,5.8c-1,2.2-2,4.2-2.2,6.8c-0.2,2.2,0,4.5-0.2,6.8
   c-0.5,2.2-1,4-1,6.2c0,0.8,0.5,2.2,0.5,2.8c0,1-0.5,2.2-0.5,3.5c0,2.2,0.5,4.5,0.8,7c-4-7-3.2-14-2-21.5s2.2-14.8,4-22
   c3.2-14.8,10-29.2,19.5-41c7.8-10.2,18-18,31.5-15.5c5,1,10.5,3.2,13.8,7.5c3.5,4.8,3.2,10.8,1.5,16.2c-3.2,9.8-11.5,17.5-19.2,24
   c-3.2,2.8-6.8,5.5-10.5,7.8c-2.5,1.5-5.2,2.5-8,3.5l-4.2,1.5c-1.8,0.5-2,0.2-2.8,1.8c-1.2,2.5-0.5,5-1,7.5c-0.5,3.2-1.2,6.2-2,9.5
   c-1.2,6-3.2,13.8-1.8,20c2.8,12.8,23.8-7,27.5-10.5c2.5-2.2,4.8-4.8,7-7c1.2-1.5,2.8-2.8,3.8-4.2c0,0,0.5-1.2,0.5-1.8
   c3-4.8,7-9.2,10.8-13.8c4.5-5.2,8.5-10.8,12.8-16.5c2.2-3.2,7.5-12.5,11.5-5.8v0.2c0.2,0.2,0.2,0.2,0.2,0
   C580.1,512.8,579.3,514,578.1,515.5z M513.8,521.5c8-4.2,15.2-10,21-16.8l4.2-5.5c0.8-1.2,2-2,2.5-3.5c0.2-1.2-0.2-2.2,0-3.8l1-5.2
   c0.2-2.5-0.8-9-4.5-8.2c-1.8,0.5-3.5,2.8-4.5,4l-4.5,6c-5.2,7.8-8,16.2-11.8,24.2c0,0,0,0.2-0.2,0.8
   C515.8,516,515.1,518.8,513.8,521.5z"/>
  <path class="st0" d="M660.3,522.5c-2,4.2-4.5,8.2-7.2,12.2c-5.8,8.5-12,17-18,25.5c-6,8.2-12.5,16.5-20.5,23.2
   c-1.5,1-13,10.2-13.8,10c0-0.2,0.2-0.5,0.5-0.8l-1.8,0.8c1.2-0.2-3.5,3-4.8,3.5c-3.5,0.8-7.2-0.2-10.2-2.2c-3.2-2-5-5-6.5-8.5
   c-2.5-5.5-2.8-10.8-1.8-16.8c0.2-1.2,3.8-15.8,5.5-15.5c0.5,0-0.5,2-0.2,2.2l1.8-6.2c-0.8-0.2,12.5-28.2,13.8-30
   c-7.5,1.5-17,1.2-22.2-5.2c-1.5-2-1-3.8-1.5-5.2c-0.8-2-1.8-3-2.2-4.8c-2.5-12.2,11.8-29.2,23.8-21l-0.5-0.8
   c0.2-1.5,3.2,2.2,3.5,3.5c0,1-2,8-3.2,7.5c-0.2,0,1.5-4.5,1.5-4.8c-1.8,4.8-7,10-7.5,15c-0.5,3.8,1.5,3.8,4.8,4.5
   c4.8,1.2,12.2,0.5,18.2,2.2c-4-1.2-8.8-1.5-12-2c0,0-0.2,0-0.2-0.2c3.8,0.5,7.8,0.5,11,1.2c7.2,1.8,11.8,4.5,8.8,12.2
   c-3,7.2-6.8,14.5-10,21.8c-3,7-5.5,14.5-8.2,21.8c-0.8,2.5-6.2,13-4.2,15.5c2.5,3,16.2-9.5,20-13.5c-0.8,0.8-1.5,0.8-2,1.2
   c-0.5,0,5-7,5.8-8l7.2-9.2l13.5-17.8l13.8-18.5c1.2-1.5,7.2-10.2,8.8-3.8C664.3,515.3,661.8,519.5,660.3,522.5z M582.8,590
   c-0.2-0.2-0.5-0.5-0.5-0.8l0.2,0.2c-1.2-2.8-2.5-5.5-3-7l0.8,3.2l-1-5.2v-0.2c-0.2-0.5-0.2-0.8-0.2-0.8s0,0.2,0.2,0.5v-1.2
   c-0.2-3.5,0-6.8,0.5-10v-0.2c-0.5,2.2-0.8,4.2-0.8,6.8c-0.2,3,0,6.5,0.8,9.5c0.2,0.8,2.2,5,3.8,7c0-0.2,0-0.5-0.2-0.5
   c1.5,1.5,3.5,2.8,5.8,3.5c-2.8-1-4.8-3-6.2-5V590z M579.8,568.3v0.2c0-0.2,0.2-0.5,0.2-0.8C580.1,568,579.8,568,579.8,568.3z
    M580.6,563.5c0,0.5-0.2,0.8-0.2,1C580.3,564.3,580.6,564,580.6,563.5z M581.1,563.5c1.8-6.5,4.5-12.8,7-18.8l4.8-11
   c1.2-2.2,6.5-14.5,7.8-15.2c-1.8,0.5-5.2,9.5-5.8,10.2c-2.2,4.2-4.2,8.5-6,13C585.8,548.8,582.8,556,581.1,563.5z M581.6,588
   c0-0.2-0.2-0.5-0.2-0.5C581.3,587.8,581.6,587.8,581.6,588z M588.8,505c0,0,0-0.2,0.2-0.2L588.8,505z M588.8,505.3
   c0.2,0.5,1.8,1.8,1.8,1.8c1.2,1,3,1.5,5,1.8c-2.2-0.2-4.5-0.5-5.8-1.5C589.3,507,588.8,505.8,588.8,505.3z M616.1,526.5l-5.2,11.2
   l5.2-11V526.5z M616.1,526.3h0.2V526L616.1,526.3z M616.1,526.3h0.2V526L616.1,526.3z"/>
  </g>
  </svg>